<svg width="768" height="768" viewBox="0 0 768 768" fill="none" xmlns="http://www.w3.org/2000/svg">
<g id="Group 7">
<circle id="Ellipse 1" cx="384" cy="384" r="384" fill="#23CF5F"/>
<path id="original-3" d="M184 500.5C259 481.5 424.5 462.5 540 541" stroke="black" stroke-width="48" stroke-linecap="round" stroke-linejoin="round"/>
<path id="original-1" d="M154.5 261.5C217.5 236 465.5 210.5 630 309" stroke="black" stroke-width="70" stroke-linecap="round" stroke-linejoin="round"/>
<path id="original-2" d="M175 384.5C260 355 451.5 350 581.5 432" stroke="black" stroke-width="60" stroke-linecap="round" stroke-linejoin="round"/>
<path id="bar-1" d="M293 524C293 470 293 323.5 293 244" stroke="black" stroke-width="48" stroke-linecap="round" stroke-linejoin="round"/>
<path id="semi-bar-2" d="M384 430C384 416 384 353 384 338" stroke="black" stroke-width="48" stroke-linecap="round" stroke-linejoin="round"/>
<path id="bar-3" d="M475 525C475 471 475 324.5 475 245" stroke="black" stroke-width="48" stroke-linecap="round" stroke-linejoin="round"/>
<path id="semi-bar-1" d="M293 430C293 415.5 293 349 293 338" stroke="black" stroke-width="48" stroke-linecap="round" stroke-linejoin="round"/>
<path id="bar-2" d="M384 524C384 485 384 278.5 384 244" stroke="black" stroke-width="48" stroke-linecap="round" stroke-linejoin="round"/>
<path id="semi-bar-3" d="M475 430C475 415.5 475 349 475 338" stroke="black" stroke-width="48" stroke-linecap="round" stroke-linejoin="round"/>
<path id="dot-1" d="M293.5 383.5C293.5 383 293.5 382.5 293.5 382" stroke="black" stroke-width="48" stroke-linecap="round" stroke-linejoin="round"/>
<path id="dot-2" d="M384 383.5C384 383 384 382.5 384 382" stroke="black" stroke-width="48" stroke-linecap="round" stroke-linejoin="round"/>
<path id="dot-3" d="M475 383.5C475 383 475 382.5 475 382" stroke="black" stroke-width="48" stroke-linecap="round" stroke-linejoin="round"/>
</g>
</svg>
